<?xml version="1.0" encoding="UTF-8" standalone="no"?>
<!-- Created with Inkscape (http://www.inkscape.org/) -->

<svg
   xmlns:dc="http://purl.org/dc/elements/1.1/"
   xmlns:cc="http://creativecommons.org/ns#"
   xmlns:rdf="http://www.w3.org/1999/02/22-rdf-syntax-ns#"
   xmlns:svg="http://www.w3.org/2000/svg"
   xmlns="http://www.w3.org/2000/svg"
   xmlns:sodipodi="http://sodipodi.sourceforge.net/DTD/sodipodi-0.dtd"
   xmlns:inkscape="http://www.inkscape.org/namespaces/inkscape"
   version="1.0"
   width="12.000001"
   height="15.545452"
   id="svg2394"
   inkscape:version="0.48.3.1 r9886"
   sodipodi:docname="padlock.svg">
  <metadata
     id="metadata8">
    <rdf:RDF>
      <cc:Work
         rdf:about="">
        <dc:format>image/svg+xml</dc:format>
        <dc:type
           rdf:resource="http://purl.org/dc/dcmitype/StillImage" />
        <dc:title />
      </cc:Work>
    </rdf:RDF>
  </metadata>
  <sodipodi:namedview
     pagecolor="#ffffff"
     bordercolor="#666666"
     borderopacity="1"
     objecttolerance="10"
     gridtolerance="10"
     guidetolerance="10"
     inkscape:pageopacity="0"
     inkscape:pageshadow="2"
     inkscape:window-width="1301"
     inkscape:window-height="744"
     id="namedview6"
     showgrid="false"
     inkscape:zoom="9.0898065"
     inkscape:cx="25.423729"
     inkscape:cy="-3.1173093"
     inkscape:window-x="65"
     inkscape:window-y="24"
     inkscape:window-maximized="1"
     inkscape:current-layer="svg2394"
     showborder="true"
     fit-margin-top="0"
     fit-margin-left="0"
     fit-margin-right="0"
     fit-margin-bottom="0" />
  <defs
     id="defs2396" />
  <g
     id="layer1"
     transform="matrix(0.03840875,0,0,0.03840875,-3.7257278,-1.9691303)">
    <path
       d="m 97.357129,434.70306 c 2.023662,12.10662 12.532641,21.30195 25.207301,21.30195 l 261.30407,0 c 12.67465,0 23.18363,-9.19533 25.2073,-21.30195 l -311.718671,0 z M 122.56443,235.88479 c -14.13028,0 -25.562372,11.43204 -25.562372,25.56234 l 0,155.50429 312.428822,0 0,-155.50429 c 0,-14.1303 -11.4321,-25.56234 -25.56238,-25.56234 l -15.58595,0 c 0.21304,-2.9468 0.31955,-66.24912 0.31955,-69.2314 0,-63.72838 -51.65726,-115.385638 -115.38564,-115.385638 -63.72836,0 -115.38563,51.657258 -115.38563,115.385638 0,2.98228 0.10651,66.2846 0.31956,69.2314 l -15.58596,0 z m 175.95419,0 -90.60431,0 c -0.56806,-2.87579 -0.85211,-66.17813 -0.85211,-69.2314 0,-25.49134 20.66293,-46.15422 46.15426,-46.15422 25.49136,0 46.15428,20.66288 46.15428,46.15422 0,3.05327 -0.28404,66.35561 -0.85212,69.2314 z"
       id="path14"
       style="fill:#2c2c2c;fill-opacity:1;fill-rule:evenodd"
       inkscape:connector-curvature="0" />
  </g>
</svg>
